<?xml version="1.0" standalone="no"?>
<!DOCTYPE svg PUBLIC "-//W3C//DTD SVG 20010904//EN"
 "http://www.w3.org/TR/2001/REC-SVG-20010904/DTD/svg10.dtd">
<svg version="1.0" xmlns="http://www.w3.org/2000/svg"
 width="148.000000pt" height="140.000000pt" viewBox="0 0 148.000000 140.000000"
 preserveAspectRatio="xMidYMid meet">

<g transform="translate(0.000000,140.000000) scale(0.100000,-0.100000)"
fill="#000000" stroke="none">
<path d="M0 700 l0 -700 740 0 740 0 0 700 0 700 -740 0 -740 0 0 -700z m940
600 c164 -14 347 -47 400 -73 63 -31 82 -72 76 -157 -3 -36 -8 -105 -12 -153
l-6 -88 -70 -80 c-215 -244 -522 -427 -853 -510 l-125 -31 -47 23 c-84 42 -80
27 -109 459 -14 212 -24 409 -21 437 6 88 43 114 205 143 214 40 357 47 562
30z m440 -782 c-8 -135 -17 -212 -27 -231 -17 -35 -67 -58 -349 -163 l-209
-77 -65 23 c-125 44 -124 41 -24 89 259 124 462 287 619 495 32 42 60 74 63
72 2 -3 -1 -96 -8 -208z"/>
<path d="M635 1050 l-180 -5 -3 -54 c-4 -77 9 -84 63 -31 43 43 48 45 115 48
l70 4 0 -306 c0 -354 -10 -328 110 -268 l75 37 3 268 2 267 50 0 c65 0 112
-20 141 -59 12 -17 31 -31 42 -31 18 0 19 5 13 62 -4 35 -13 66 -19 70 -13 8
-178 7 -482 -2z"/>
</g>
</svg>
